<?xml version="1.0" standalone="no"?>
<!DOCTYPE svg PUBLIC "-//W3C//DTD SVG 20010904//EN"
 "http://www.w3.org/TR/2001/REC-SVG-20010904/DTD/svg10.dtd">
<svg version="1.0" xmlns="http://www.w3.org/2000/svg"
 width="500.000000pt" height="500.000000pt" viewBox="0 0 500.000000 500.000000"
 preserveAspectRatio="xMidYMid meet">
<metadata>
Created by potrace 1.14, written by Peter Selinger 2001-2017
</metadata>
<g transform="translate(0.000000,500.000000) scale(0.100000,-0.100000)"
fill="#000000" stroke="none">
<path d="M3637 3473 c-4 -3 -7 -35 -7 -70 l0 -63 515 0 515 0 2 -522 3 -523
68 -3 67 -3 0 596 0 595 -578 0 c-318 0 -582 -3 -585 -7z"/>
<path d="M1566 3054 c-12 -31 -7 -369 6 -382 7 -7 29 -12 50 -12 47 0 58 19
58 94 0 66 -2 65 135 69 l90 2 0 40 0 40 -90 2 c-121 4 -135 8 -135 38 0 31
14 34 145 38 l100 2 0 40 0 40 -176 3 c-155 2 -177 0 -183 -14z"/>
<path d="M2064 3057 c-2 -7 -3 -98 -2 -202 l3 -190 38 -3 c55 -5 67 10 67 78
0 71 11 82 82 78 l53 -3 5 -65 c3 -36 9 -71 13 -77 10 -16 79 -17 95 -1 12 12
17 114 6 142 -3 9 -14 16 -23 16 -9 0 -22 5 -29 12 -21 21 -13 44 21 59 25 11
33 21 35 46 4 42 -22 97 -54 112 -37 16 -303 15 -310 -2z m230 -83 c26 -10 20
-53 -7 -60 -70 -17 -137 14 -108 50 14 16 83 22 115 10z"/>
<path d="M2562 3058 c-17 -17 -17 -369 0 -386 8 -8 63 -12 180 -12 168 0 168
0 179 24 8 17 8 29 0 45 -11 19 -20 21 -114 21 -110 0 -142 11 -135 46 3 17
14 19 111 22 105 3 108 3 117 28 7 17 6 32 0 45 -10 17 -22 19 -108 19 -100 0
-122 7 -122 41 0 25 20 29 136 29 100 0 105 1 115 24 8 17 8 29 0 45 -11 20
-19 21 -179 21 -117 0 -172 -4 -180 -12z"/>
<path d="M3055 3057 c-3 -7 -4 -98 -3 -202 l3 -190 169 -3 c186 -3 199 1 194
52 l-3 31 -118 5 c-90 4 -120 9 -127 20 -24 37 1 49 114 52 109 3 125 12 112
61 l-6 27 -104 0 c-82 0 -106 3 -117 16 -9 11 -10 20 -2 32 8 14 33 18 129 22
l119 5 0 40 0 40 -178 3 c-139 2 -179 0 -182 -11z"/>
<path d="M200 2115 l0 -595 583 2 582 3 3 68 3 67 -515 0 -516 0 -2 523 -3
522 -67 3 -68 3 0 -596z"/>
<path d="M3735 2266 c-59 -129 -107 -238 -106 -243 0 -4 19 -8 42 -8 l40 0
110 238 c60 131 109 240 109 242 0 3 -20 5 -44 5 l-44 0 -107 -234z"/>
<path d="M564 2447 c-2 -7 -3 -98 -2 -202 l3 -190 93 -3 c165 -5 192 24 192
203 0 181 -22 205 -185 205 -68 0 -97 -4 -101 -13z m164 -89 c8 -8 12 -46 12
-105 0 -81 -2 -94 -19 -103 -37 -19 -51 11 -51 109 0 84 8 111 35 111 6 0 16
-5 23 -12z"/>
<path d="M984 2447 c-2 -7 -3 -98 -2 -202 l3 -190 174 0 c190 0 201 3 187 58
l-6 27 -108 0 c-120 0 -157 13 -136 47 9 15 27 18 110 21 104 3 124 11 124 47
0 36 -20 44 -124 47 -79 2 -101 6 -109 20 -8 12 -7 21 2 32 11 13 35 16 120
16 112 0 131 6 131 45 0 41 -16 45 -192 45 -128 0 -170 -3 -174 -13z"/>
<path d="M1476 2444 c-12 -31 -7 -369 6 -382 20 -20 86 -15 98 7 5 11 10 80
10 154 0 115 2 136 16 141 37 14 44 -11 44 -153 0 -93 4 -141 12 -149 20 -20
86 -15 98 7 5 11 10 80 10 154 0 115 2 136 16 141 37 14 44 -11 44 -153 0 -93
4 -141 12 -149 20 -20 86 -15 98 7 13 26 13 346 0 372 -9 17 -22 19 -100 19
l-89 0 -9 -32 c-12 -49 -47 -50 -66 -4 l-15 36 -89 0 c-73 0 -91 -3 -96 -16z"/>
<path d="M2124 2441 c-48 -29 -55 -59 -52 -231 l3 -155 50 0 50 0 5 54 c9 96
70 96 70 0 0 -43 3 -49 24 -55 13 -3 37 -4 52 -2 l29 3 3 158 c3 175 -4 204
-58 232 -42 22 -137 20 -176 -4z m115 -85 c7 -8 11 -31 9 -52 -6 -73 -68 -68
-68 5 0 54 32 79 59 47z"/>
<path d="M2494 2446 c-3 -8 -4 -27 -2 -43 3 -25 7 -28 43 -31 64 -5 65 -9 65
-161 0 -93 4 -141 12 -149 16 -16 80 -16 96 0 8 8 12 57 12 155 0 159 -5 148
75 155 28 3 30 6 30 43 l0 40 -163 3 c-134 2 -163 0 -168 -12z"/>
<path d="M3263 2440 c-50 -30 -54 -45 -51 -222 l3 -163 41 -3 c49 -4 62 9 66
67 2 28 9 48 20 55 26 16 42 -6 48 -67 l5 -52 38 -3 c64 -5 67 2 67 165 0 161
-9 196 -59 226 -41 24 -136 23 -178 -3z m121 -103 c15 -40 -3 -82 -34 -82 -22
0 -25 5 -28 43 -5 70 41 99 62 39z"/>
<path d="M4105 2438 c-42 -33 -55 -76 -54 -180 0 -114 13 -155 58 -185 31 -21
45 -23 167 -23 126 0 134 1 145 21 8 16 8 28 0 45 -10 23 -15 24 -111 24 -141
0 -140 -1 -140 119 0 81 3 100 16 105 9 3 62 6 119 6 96 0 105 2 116 21 8 16
8 28 0 45 -10 24 -13 24 -149 24 -128 0 -142 -2 -167 -22z"/>
</g>
</svg>
