<?xml version="1.0" standalone="no"?>
<!DOCTYPE svg PUBLIC "-//W3C//DTD SVG 20010904//EN"
 "http://www.w3.org/TR/2001/REC-SVG-20010904/DTD/svg10.dtd">
<svg version="1.0" xmlns="http://www.w3.org/2000/svg"
 width="1920.000000pt" height="1920.000000pt" viewBox="0 0 1920.000000 1920.000000"
 preserveAspectRatio="xMidYMid meet">
<metadata>
Created by potrace 1.14, written by Peter Selinger 2001-2017
</metadata>
<g transform="translate(0.000000,1920.000000) scale(0.100000,-0.100000)"
fill="#000000" stroke="none">
<path d="M0 9600 l0 -5400 9600 0 9600 0 0 5400 0 5400 -9600 0 -9600 0 0
-5400z m1382 4703 l3 -168 753 -3 752 -2 0 170 0 170 6710 0 6710 0 0 -170 0
-170 753 2 752 3 3 168 2 167 470 0 470 0 0 -4870 0 -4870 -470 0 -470 0 -2
168 -3 167 -752 3 -753 2 0 -170 0 -170 -6710 0 -6710 0 0 170 0 170 -752 -2
-753 -3 -3 -167 -2 -168 -470 0 -470 0 0 4870 0 4870 470 0 470 0 2 -167z"/>
<path d="M13900 12808 c-58 -17 -107 -32 -109 -34 -2 -2 1 -16 8 -30 10 -24
-7 -73 -196 -536 l-207 -509 -72 -33 c-80 -37 -89 -46 -80 -82 l6 -24 254 0
253 0 7 41 c4 22 4 44 1 49 -3 4 -43 13 -88 20 l-84 12 41 109 41 109 224 -2
223 -3 18 -45 c10 -25 27 -68 39 -97 l20 -51 -80 -38 c-76 -36 -80 -39 -77
-68 l3 -31 298 -3 297 -2 0 49 0 50 -60 7 c-33 3 -64 12 -69 18 -6 8 -413
1000 -468 1144 -7 17 -22 14 -143 -20z m84 -547 c42 -112 75 -206 73 -208 -2
-2 -76 -2 -163 -1 l-160 3 81 212 c44 116 83 209 86 205 3 -4 40 -99 83 -211z"/>
<path d="M4683 12803 l-133 -4 0 -49 0 -49 48 -6 c26 -3 57 -8 70 -11 l22 -4
0 -490 0 -489 -74 -34 c-82 -39 -89 -46 -80 -82 l6 -25 304 0 304 0 0 49 0 48
-52 7 c-29 4 -68 9 -85 12 l-33 6 0 180 0 179 77 -3 77 -3 126 -237 125 -237
193 -1 192 0 0 49 0 48 -62 9 -63 9 -108 175 c-155 251 -145 223 -91 255 103
60 164 140 191 249 29 120 -8 239 -104 326 -60 55 -131 93 -218 115 -59 15
-229 17 -632 8z m595 -175 c41 -43 62 -95 69 -172 12 -127 -45 -228 -145 -257
-46 -14 -192 -16 -212 -4 -6 4 -10 88 -10 225 l0 218 93 10 c163 17 169 16
205 -20z"/>
<path d="M8973 12803 l-73 -4 0 -49 0 -49 48 -6 c26 -3 54 -7 62 -8 13 -2 15
-66 17 -497 l2 -495 -75 -34 c-72 -33 -75 -36 -72 -65 l3 -31 340 -3 c387 -3
447 4 575 65 138 66 258 208 304 363 26 84 31 240 12 330 -48 230 -231 424
-447 475 -50 11 -124 14 -344 13 -154 -1 -313 -4 -352 -5z m692 -198 c165
-169 209 -480 98 -698 -37 -74 -108 -140 -179 -167 -50 -19 -72 -21 -144 -17
-47 3 -93 8 -103 12 -16 7 -17 35 -15 454 l3 446 95 11 c183 22 184 22 245
-41z"/>
<path d="M14700 12731 c0 -72 13 -217 26 -288 l6 -33 78 0 78 0 12 120 13 120
36 1 c20 0 73 4 119 7 l82 7 0 -480 0 -480 -85 -34 c-97 -39 -108 -49 -99 -85
l6 -26 329 0 329 0 0 49 0 49 -75 11 c-42 6 -85 11 -95 11 -20 0 -20 10 -20
493 l0 492 113 -9 c61 -4 115 -13 118 -18 4 -6 10 -42 13 -82 4 -39 10 -88 13
-109 l6 -38 76 3 76 3 12 70 c6 39 13 126 15 195 l3 125 -592 1 -593 1 0 -76z"/>
<path d="M3367 12793 c-4 -3 -7 -26 -7 -49 l0 -43 48 -6 c26 -3 57 -8 70 -11
l22 -4 0 -493 0 -493 -65 -28 c-76 -33 -88 -45 -79 -80 l6 -26 323 0 322 0 7
41 c4 22 4 44 1 48 -2 5 -42 14 -87 20 -46 7 -95 14 -110 17 l-28 6 0 185 0
185 128 -6 c70 -4 164 -9 210 -12 l82 -6 0 101 c0 99 -1 101 -23 101 -28 0
-271 -18 -344 -25 l-53 -5 0 220 0 220 68 -6 c37 -3 112 -9 167 -12 l100 -7
17 -95 c9 -52 17 -96 17 -97 1 -2 37 -3 80 -3 l79 0 11 63 c7 34 14 117 18
185 l6 122 -490 0 c-269 0 -493 -3 -496 -7z"/>
<path d="M5910 12751 l0 -50 48 -6 c26 -3 57 -8 70 -11 l22 -4 0 -489 0 -489
-80 -38 c-80 -37 -89 -48 -74 -88 5 -14 59 -16 499 -16 l492 0 6 63 c14 134
19 304 11 309 -5 3 -42 7 -83 9 l-75 4 -30 -101 -31 -102 -90 -6 c-49 -4 -127
-9 -172 -13 l-83 -6 0 193 0 192 200 -7 200 -7 0 96 c0 53 -3 96 -7 96 -5 0
-84 -7 -178 -15 -93 -8 -180 -15 -192 -15 l-23 0 0 201 0 201 43 -6 c23 -3 95
-8 160 -12 93 -5 120 -10 126 -23 5 -9 14 -51 21 -93 l13 -78 82 0 82 0 11 88
c18 144 24 229 17 251 -6 21 -9 21 -496 21 l-489 0 0 -49z"/>
<path d="M7130 12750 c0 -54 1 -54 95 -62 l30 -3 2 -495 2 -495 -75 -34 c-72
-33 -75 -36 -72 -65 l3 -31 491 -3 c461 -2 492 -1 499 15 4 10 9 95 12 190 l6
171 -74 4 c-41 2 -77 1 -81 -2 -5 -3 -21 -48 -36 -100 l-28 -95 -65 -6 c-35
-4 -115 -10 -176 -14 l-113 -7 0 192 0 192 205 -7 205 -7 0 96 c0 53 -3 96 -7
96 -5 0 -87 -7 -183 -15 -96 -8 -185 -15 -197 -15 l-23 0 0 201 0 202 48 -6
c26 -4 100 -9 165 -13 65 -4 120 -11 123 -15 4 -6 34 -163 34 -176 0 -2 36 -3
80 -3 90 0 81 -10 100 110 5 36 10 107 10 158 l0 92 -490 0 -490 0 0 -50z"/>
<path d="M10280 12751 l0 -50 48 -6 c26 -3 57 -8 70 -11 l22 -4 0 -490 0 -489
-74 -34 c-82 -39 -89 -46 -80 -82 l6 -25 493 0 492 0 7 43 c3 23 9 108 13 190
l6 147 -59 0 c-32 0 -69 3 -81 6 -20 6 -24 -2 -54 -99 l-32 -105 -91 -6 c-50
-4 -128 -9 -173 -13 l-83 -6 0 193 0 192 200 -7 200 -7 0 96 c0 53 -3 96 -7
96 -5 0 -84 -7 -178 -15 -93 -8 -180 -15 -192 -15 l-23 0 0 200 0 200 68 -6
c37 -3 112 -9 167 -12 l100 -7 14 -92 14 -93 82 0 82 0 12 71 c6 40 14 121 18
180 l6 109 -496 0 -497 0 0 -49z"/>
<path d="M11510 12737 l0 -44 81 -17 80 -17 -5 -67 c-3 -37 -8 -184 -11 -327
-3 -143 -8 -328 -11 -411 l-7 -151 -82 -41 c-79 -39 -82 -41 -77 -71 l4 -31
264 0 264 0 0 44 c0 48 7 44 -104 66 l-58 12 6 261 c5 199 3 296 -8 402 -8 77
-13 141 -12 142 1 1 78 -208 170 -465 93 -257 170 -469 172 -471 5 -5 199 30
212 38 5 3 85 210 178 458 92 249 169 452 170 450 1 -1 -3 -70 -10 -152 -9
-97 -12 -237 -8 -397 l5 -246 -75 -35 c-84 -39 -91 -46 -82 -82 l6 -25 299 0
299 0 0 44 c0 50 2 49 -97 66 l-71 13 -6 121 c-3 67 -8 283 -11 481 l-5 360
72 35 c67 32 73 38 73 65 l0 30 -219 3 c-154 2 -222 -1 -226 -9 -4 -6 -81
-213 -171 -460 -114 -312 -166 -443 -172 -431 -4 9 -79 215 -165 457 l-159
440 -251 3 -252 2 0 -43z"/>
<path d="M5625 10748 c-60 -16 -111 -31 -112 -32 -2 -1 2 -16 8 -32 10 -26 -5
-68 -166 -464 -97 -239 -191 -468 -207 -508 l-31 -74 -72 -33 c-40 -18 -75
-37 -78 -41 -3 -5 -3 -21 0 -37 l5 -27 259 0 259 0 0 48 0 49 -82 11 c-45 7
-83 14 -86 16 -2 3 13 51 35 108 l39 103 224 3 225 2 35 -92 c19 -50 36 -95
38 -99 2 -4 -30 -23 -71 -42 -83 -38 -92 -47 -83 -83 l6 -24 295 0 294 0 7 35
c10 54 2 63 -66 71 -33 4 -64 12 -68 18 -4 6 -111 268 -238 581 -136 334 -238
571 -245 572 -8 1 -63 -12 -124 -29z m78 -540 c43 -112 77 -206 77 -210 0 -5
-72 -8 -160 -8 -88 0 -160 3 -160 7 0 14 155 413 161 413 3 0 40 -91 82 -202z"/>
<path d="M6962 10770 c-143 -20 -280 -92 -371 -197 -54 -62 -125 -208 -145
-300 -20 -90 -20 -246 -1 -338 56 -269 271 -449 550 -462 l100 -5 190 82 c104
44 191 82 192 84 2 2 -36 126 -41 133 -1 1 -71 -20 -156 -48 -135 -44 -163
-49 -218 -46 -81 6 -156 43 -215 106 -90 96 -122 193 -121 371 0 188 47 330
139 420 l44 43 84 -12 c47 -6 109 -20 138 -30 l54 -18 13 -64 c7 -35 17 -88
23 -116 l10 -53 89 0 88 0 10 43 c17 67 34 209 30 257 -3 44 -3 44 -76 81
-119 61 -276 87 -410 69z"/>
<path d="M8112 10770 c-143 -20 -280 -92 -371 -197 -54 -62 -125 -208 -145
-300 -20 -90 -20 -246 -1 -338 56 -269 271 -449 550 -462 l100 -5 190 82 c104
44 191 82 192 84 2 2 -36 126 -41 133 -1 1 -71 -20 -156 -48 -135 -44 -163
-49 -218 -46 -81 6 -156 43 -215 106 -90 96 -122 193 -121 371 0 188 47 330
139 420 l44 43 84 -12 c47 -6 109 -20 138 -30 l54 -18 13 -64 c7 -35 17 -88
23 -116 l10 -53 89 0 88 0 10 43 c17 67 34 209 30 257 -3 44 -3 44 -76 81
-119 61 -276 87 -410 69z"/>
<path d="M9242 10769 c-233 -35 -419 -211 -483 -456 -28 -108 -28 -288 0 -395
86 -330 386 -512 729 -442 117 24 195 66 282 154 130 130 180 260 180 469 0
64 -7 148 -15 186 -47 222 -224 416 -428 469 -75 20 -191 26 -265 15z m196
-193 c84 -43 151 -141 188 -277 24 -87 24 -307 1 -403 -23 -93 -68 -184 -112
-226 -36 -35 -37 -35 -128 -35 -76 0 -99 4 -134 23 -98 52 -170 168 -199 323
-20 100 -14 290 11 384 19 73 67 175 95 200 54 49 193 54 278 11z"/>
<path d="M13000 10671 c0 -72 13 -217 26 -288 l6 -33 78 0 78 0 12 120 13 120
36 1 c20 0 73 4 119 7 l82 7 0 -480 0 -480 -85 -34 c-97 -39 -108 -49 -99 -85
l6 -26 329 0 329 0 0 49 0 49 -75 11 c-42 6 -85 11 -95 11 -20 0 -20 10 -20
493 l0 492 113 -9 c61 -4 115 -13 118 -18 4 -6 10 -42 13 -82 4 -39 10 -88 13
-109 l6 -38 76 3 76 3 12 70 c6 39 13 126 15 195 l3 125 -592 1 -593 1 0 -76z"/>
<path d="M10050 10691 c0 -54 -5 -51 97 -66 l41 -6 5 -347 c4 -380 8 -406 69
-532 59 -123 193 -226 338 -261 84 -20 252 -16 327 9 121 39 208 113 259 220
50 106 56 160 61 539 l5 352 75 35 c72 35 74 37 71 68 l-3 33 -257 3 -258 2 0
-49 c0 -54 -8 -50 113 -67 l48 -6 -3 -377 c-4 -357 -5 -379 -26 -444 -41 -121
-112 -164 -255 -155 -88 6 -140 30 -194 92 -73 83 -76 104 -81 506 l-4 355 82
40 c69 33 80 43 76 60 -3 11 -6 26 -6 33 0 9 -65 12 -290 12 l-290 0 0 -49z"/>
<path d="M11557 10734 c-4 -4 -7 -26 -7 -50 0 -46 -5 -43 93 -59 l37 -6 0
-492 -1 -492 -75 -34 c-72 -33 -75 -36 -72 -65 l3 -31 263 -3 262 -2 0 49 0
49 -85 12 -85 12 0 282 c0 156 -5 319 -11 364 -6 45 -9 86 -7 91 1 5 79 -109
173 -253 93 -143 224 -345 291 -447 l121 -185 127 12 c70 7 130 15 134 18 3 4
8 251 10 551 l5 545 73 35 c74 36 84 48 68 89 -5 14 -39 16 -270 16 l-264 0 0
-50 c0 -55 -8 -50 120 -68 l55 -7 6 -310 c4 -171 12 -343 18 -384 6 -41 10
-76 8 -77 -1 -1 -131 199 -288 444 l-285 447 -205 3 c-113 1 -208 -1 -212 -4z"/>
<path d="M1652 8709 c-233 -35 -419 -211 -483 -456 -28 -108 -28 -288 0 -395
86 -330 386 -512 729 -442 117 24 195 66 282 154 130 130 180 260 180 469 0
64 -7 148 -15 186 -47 222 -224 416 -428 469 -75 20 -191 26 -265 15z m196
-193 c84 -43 151 -141 188 -277 24 -87 24 -307 1 -403 -23 -93 -68 -184 -112
-226 -36 -35 -37 -35 -128 -35 -76 0 -99 4 -134 23 -98 52 -170 168 -199 323
-20 100 -14 290 11 384 19 73 67 175 95 200 54 49 193 54 278 11z"/>
<path d="M9310 8710 c-91 -11 -144 -26 -230 -67 -99 -48 -231 -177 -277 -273
-106 -221 -109 -434 -7 -649 47 -101 152 -205 255 -254 88 -42 201 -67 301
-67 69 1 85 6 273 84 l200 84 3 160 2 161 33 6 c107 22 107 22 107 70 l0 45
-295 0 c-284 0 -295 -1 -295 -19 0 -11 -2 -26 -5 -34 -5 -13 67 -52 158 -86
l27 -11 0 -129 0 -130 -56 -7 c-159 -19 -276 16 -359 109 -90 99 -125 204
-125 378 0 179 49 327 141 422 l48 50 93 -6 c88 -6 221 -38 243 -58 6 -6 19
-54 31 -107 l20 -97 90 0 89 0 17 80 c9 44 17 115 17 157 l1 78 -39 25 c-58
39 -166 73 -267 85 -97 11 -100 11 -194 0z"/>
<path d="M11152 8709 c-233 -35 -419 -211 -483 -456 -28 -108 -28 -288 0 -395
86 -330 386 -512 729 -442 117 24 195 66 282 154 130 130 180 260 180 469 0
64 -7 148 -15 186 -47 222 -224 416 -428 469 -75 20 -191 26 -265 15z m196
-193 c84 -43 151 -141 188 -277 24 -87 24 -307 1 -403 -23 -93 -68 -184 -112
-226 -36 -35 -37 -35 -128 -35 -76 0 -99 4 -134 23 -98 52 -170 168 -199 323
-20 100 -14 290 11 384 19 73 67 175 95 200 54 49 193 54 278 11z"/>
<path d="M2643 8683 l-133 -4 0 -49 0 -49 48 -6 c26 -3 57 -8 70 -11 l22 -4 0
-490 0 -490 -75 -37 c-71 -35 -75 -39 -75 -70 l0 -33 330 0 330 0 0 49 0 49
-87 11 c-150 20 -133 -2 -133 175 l0 153 77 7 c42 3 108 6 148 6 182 0 359
109 416 258 30 79 30 195 0 275 -45 115 -167 215 -308 252 -57 15 -232 17
-630 8z m595 -177 c43 -49 67 -126 67 -217 0 -154 -87 -249 -229 -249 -33 0
-78 3 -98 6 l-38 7 0 232 0 233 88 9 c164 19 176 17 210 -21z"/>
<path d="M3760 8631 l0 -50 48 -6 c26 -3 57 -8 70 -11 l22 -4 0 -489 0 -489
-80 -38 c-80 -37 -89 -48 -74 -88 5 -14 59 -16 499 -16 l492 0 6 63 c14 134
19 304 11 309 -5 3 -42 7 -83 9 l-75 4 -30 -101 -31 -102 -90 -6 c-49 -4 -127
-9 -172 -13 l-83 -6 0 193 0 192 200 -7 200 -7 0 96 c0 53 -3 96 -7 96 -5 0
-84 -7 -178 -15 -93 -8 -180 -15 -192 -15 l-23 0 0 201 0 201 43 -6 c23 -3 95
-8 160 -12 93 -5 120 -10 126 -23 5 -9 14 -51 21 -93 l13 -78 82 0 82 0 11 88
c18 144 24 229 17 251 -6 21 -9 21 -496 21 l-489 0 0 -49z"/>
<path d="M4980 8631 c0 -54 -6 -50 93 -67 l37 -6 0 -490 0 -489 -55 -25 c-90
-39 -102 -50 -97 -84 l4 -30 259 0 259 0 2 35 c0 19 1 40 2 47 1 12 -27 20
-116 33 l-48 6 0 277 c-1 167 -6 316 -14 375 -7 57 -9 94 -3 88 5 -5 137 -205
292 -443 l282 -433 94 2 c52 1 113 5 137 8 l42 6 0 158 c0 87 3 334 7 550 l6
392 71 36 c39 19 73 37 74 38 2 2 1 17 -3 34 l-7 31 -264 0 -264 0 0 -50 c0
-55 -8 -50 120 -68 l55 -7 7 -330 c4 -182 11 -355 16 -385 5 -30 9 -56 7 -57
-1 -2 -131 200 -289 447 l-288 450 -209 0 -209 0 0 -49z"/>
<path d="M6480 8631 c0 -55 -5 -51 98 -66 l42 -7 0 -491 -1 -492 -75 -34 c-72
-33 -75 -36 -72 -65 l3 -31 302 -3 302 -2 7 35 c10 56 3 62 -90 75 l-86 12 0
487 0 487 80 39 c81 40 84 43 74 83 l-6 22 -289 0 -289 0 0 -49z"/>
<path d="M7270 8631 c0 -54 -6 -50 93 -67 l37 -6 0 -489 0 -488 -74 -34 c-82
-39 -89 -46 -80 -82 l6 -25 259 0 259 0 0 49 0 49 -47 6 c-27 4 -63 10 -80 13
l-33 5 0 267 c-1 170 -6 304 -15 371 -7 57 -12 106 -11 108 2 1 135 -199 295
-445 l292 -449 127 13 c70 6 130 12 135 12 4 1 7 198 7 439 0 240 3 488 7 550
l6 113 68 34 c37 19 70 38 72 42 3 5 3 20 0 36 l-5 27 -264 0 -264 0 0 -50 c0
-55 -8 -50 120 -68 l55 -7 6 -330 c3 -182 9 -355 13 -385 l8 -55 -54 80 c-29
44 -159 246 -288 448 l-235 367 -207 0 -208 0 0 -49z"/>
<path d="M12020 8631 c0 -54 -6 -50 93 -67 l37 -6 0 -490 0 -489 -55 -25 c-90
-39 -102 -50 -97 -84 l4 -30 259 0 259 0 2 35 c0 19 1 40 2 47 1 12 -27 20
-116 33 l-48 6 0 277 c-1 167 -6 316 -14 375 -7 57 -9 94 -3 88 5 -5 137 -205
292 -443 l282 -433 94 2 c52 1 113 5 137 8 l42 6 0 158 c0 87 3 334 7 550 l6
392 71 36 c39 19 73 37 74 38 2 2 1 17 -3 34 l-7 31 -264 0 -264 0 0 -50 c0
-55 -8 -50 120 -68 l55 -7 7 -330 c4 -182 11 -355 16 -385 5 -30 9 -56 7 -57
-1 -2 -131 200 -289 447 l-288 450 -209 0 -209 0 0 -49z"/>
<path d="M13520 8631 c0 -55 -5 -51 98 -66 l42 -7 0 -491 -1 -492 -75 -34
c-72 -33 -75 -36 -72 -65 l3 -31 511 -3 c474 -2 512 -1 518 15 10 26 30 402
22 410 -7 8 -158 24 -164 18 -2 -2 -20 -59 -39 -127 -19 -67 -36 -124 -37
-125 -3 -3 -335 -33 -363 -33 -10 0 -13 100 -13 468 l0 468 80 39 c81 40 84
43 74 83 l-6 22 -289 0 -289 0 0 -49z"/>
<path d="M14700 8631 c0 -55 -5 -51 98 -66 l42 -7 0 -489 0 -490 -55 -25 c-90
-39 -102 -50 -97 -84 l4 -30 304 0 304 0 0 49 0 49 -85 12 -85 12 0 487 0 487
81 39 c68 34 79 43 75 60 -3 11 -6 26 -6 33 0 9 -65 12 -290 12 l-290 0 0 -49z"/>
<path d="M15490 8631 c0 -54 -6 -50 93 -67 l37 -6 0 -488 0 -488 -80 -38 c-80
-37 -89 -48 -74 -88 5 -14 38 -16 265 -16 l259 0 0 49 0 49 -47 6 c-27 4 -63
10 -80 13 l-33 5 0 252 c0 170 -5 290 -16 370 -8 65 -14 120 -12 122 2 1 135
-198 295 -444 l292 -448 128 12 c70 7 131 13 136 13 4 1 7 248 7 550 l0 549
76 36 c73 35 75 37 72 68 l-3 33 -265 0 -265 0 -3 -47 c-2 -34 1 -48 10 -49 7
0 49 -6 93 -12 l80 -12 6 -345 c3 -190 9 -363 13 -385 6 -35 6 -38 -6 -23 -8
9 -137 210 -288 447 l-275 430 -207 1 -208 0 0 -49z"/>
<path d="M16990 8631 l0 -50 48 -6 c26 -3 57 -8 70 -11 l22 -4 0 -489 0 -489
-80 -38 c-80 -37 -89 -48 -74 -88 5 -14 59 -16 499 -16 l492 0 6 63 c14 134
19 304 11 309 -5 3 -42 7 -83 9 l-75 4 -30 -101 -31 -102 -90 -6 c-49 -4 -127
-9 -172 -13 l-83 -6 0 193 0 192 200 -7 200 -7 0 96 c0 53 -3 96 -7 96 -5 0
-84 -7 -178 -15 -93 -8 -180 -15 -192 -15 l-23 0 0 201 0 201 43 -6 c23 -3 95
-8 160 -12 93 -5 120 -10 126 -23 5 -9 14 -51 21 -93 l13 -78 82 0 82 0 11 88
c18 144 24 229 17 251 -6 21 -9 21 -496 21 l-489 0 0 -49z"/>
</g>
</svg>
